<?xml version="1.0" standalone="no"?>
<!DOCTYPE svg PUBLIC "-//W3C//DTD SVG 20010904//EN"
 "http://www.w3.org/TR/2001/REC-SVG-20010904/DTD/svg10.dtd">
<svg version="1.0" xmlns="http://www.w3.org/2000/svg"
 width="137.000000pt" height="120.000000pt" viewBox="0 0 137.000000 120.000000"
 preserveAspectRatio="xMidYMid meet">

<g transform="translate(0.000000,120.000000) scale(0.100000,-0.100000)"
fill="#1a85f7" stroke="none">
<path d="M1179 1175 c-31 -17 -132 -44 -274 -75 l-100 -22 -72 -76 c-57 -59
-73 -71 -73 -54 0 11 -4 23 -9 27 -21 12 -221 -282 -221 -325 0 -26 21 -4 55
58 42 76 136 212 148 212 4 0 7 -11 7 -25 0 -37 13 -31 58 28 82 107 114 133
183 146 74 15 275 66 303 77 17 6 18 3 11 -37 -23 -135 -79 -242 -134 -254
-43 -9 -39 -25 7 -26 20 0 46 -4 56 -8 17 -7 12 -13 -40 -48 -87 -59 -181
-104 -233 -112 -56 -8 -61 -29 -11 -47 l35 -12 -80 -38 c-67 -31 -91 -37 -150
-38 -38 -1 -87 3 -107 7 -31 6 -38 5 -38 -7 0 -20 70 -30 163 -24 60 4 90 13
175 53 56 26 102 52 102 57 0 5 -14 11 -30 15 -28 5 -25 8 58 49 102 49 212
127 212 149 0 9 -12 18 -29 21 l-29 6 28 44 c28 45 63 159 75 247 7 52 0 57
-46 32z"/>
<path d="M899 917 c-272 -230 -454 -347 -609 -393 -57 -17 -70 -24 -56 -30 70
-28 331 116 577 318 56 45 108 88 115 94 15 12 19 34 7 34 -5 -1 -20 -11 -34
-23z"/>
<path d="M55 260 c-3 -6 0 -12 7 -15 26 -10 1223 0 1223 10 0 14 -1221 19
-1230 5z"/>
<path d="M180 181 c0 -12 74 -71 89 -71 22 0 10 19 -31 49 -43 32 -58 38 -58
22z"/>
<path d="M490 178 c1 -16 85 -79 94 -71 12 12 6 20 -38 51 -49 35 -56 38 -56
20z"/>
<path d="M770 182 c0 -11 85 -72 99 -72 22 0 10 17 -33 48 -44 32 -66 40 -66
24z"/>
<path d="M1070 178 c1 -16 85 -79 94 -71 12 12 6 20 -38 51 -49 35 -56 38 -56
20z"/>
<path d="M64 38 c-3 -4 1 -10 8 -12 7 -3 289 -7 626 -11 437 -4 612 -3 612 5
0 6 -6 12 -12 15 -27 8 -1229 12 -1234 3z"/>
</g>
</svg>
