<?xml version="1.0" standalone="no"?>
<!DOCTYPE svg PUBLIC "-//W3C//DTD SVG 20010904//EN"
 "http://www.w3.org/TR/2001/REC-SVG-20010904/DTD/svg10.dtd">
<svg version="1.0" xmlns="http://www.w3.org/2000/svg"
 width="120.000000pt" height="105.000000pt" viewBox="0 0 120.000000 105.000000"
 preserveAspectRatio="xMidYMid meet">

<g transform="translate(0.000000,105.000000) scale(0.100000,-0.100000)"
fill="#1a85f7" stroke="none">
<path d="M194 929 c-18 -5 -54 -24 -80 -42 -67 -47 -104 -117 -104 -201 0
-105 22 -136 247 -347 109 -102 215 -200 235 -218 l38 -33 59 57 60 57 87 -81
c48 -44 92 -81 98 -81 17 0 325 288 341 320 19 37 19 123 1 158 -20 37 -55 68
-99 87 -36 15 -37 17 -31 54 14 88 -44 195 -134 249 -42 24 -57 27 -137 27
-80 0 -95 -3 -136 -27 -44 -26 -92 -73 -101 -99 -2 -6 -29 13 -59 43 -79 79
-182 107 -285 77z m182 -34 c47 -19 105 -76 126 -122 10 -24 21 -43 23 -43 3
0 16 22 29 49 31 61 86 107 150 126 63 19 80 19 147 -1 95 -28 169 -124 169
-221 0 -45 -9 -63 -34 -63 -32 -1 -98 -34 -125 -63 l-24 -27 -38 35 c-59 53
-138 68 -207 40 -74 -31 -114 -90 -114 -165 0 -61 11 -82 85 -158 l62 -62 -47
-46 c-42 -42 -48 -45 -65 -33 -60 42 -433 405 -453 441 -16 29 -23 58 -24 98
-2 167 177 281 340 215z m357 -319 c36 -14 87 -69 87 -92 0 -8 7 -14 15 -14 8
0 15 6 15 14 0 21 47 74 81 91 36 19 112 19 148 0 40 -20 79 -70 87 -110 12
-65 -9 -96 -154 -232 -75 -70 -147 -136 -159 -146 -21 -18 -22 -17 -176 128
-112 105 -159 155 -167 181 -41 123 96 234 223 180z"/>
<path d="M144 775 c-35 -53 -22 -165 21 -181 25 -10 30 4 9 27 -26 28 -27 119
-1 146 21 24 22 33 2 33 -8 0 -22 -11 -31 -25z"/>
<path d="M246 513 c-8 -9 124 -143 141 -143 24 0 14 15 -55 83 -69 69 -74 72
-86 60z"/>
</g>
</svg>
