<?xml version="1.0" standalone="no"?>
<!DOCTYPE svg PUBLIC "-//W3C//DTD SVG 20010904//EN"
 "http://www.w3.org/TR/2001/REC-SVG-20010904/DTD/svg10.dtd">
<svg version="1.0" xmlns="http://www.w3.org/2000/svg"
 width="136.000000pt" height="119.000000pt" viewBox="0 0 136.000000 119.000000"
 preserveAspectRatio="xMidYMid meet">

<g transform="translate(0.000000,119.000000) scale(0.100000,-0.100000)"
fill="#1a85f7" stroke="none">
<path d="M406 1170 c-75 -23 -89 -86 -30 -140 32 -29 36 -36 30 -69 -3 -20 -6
-64 -6 -98 l0 -62 -62 -52 c-35 -28 -75 -71 -90 -94 -15 -24 -45 -53 -69 -66
-76 -43 -75 -113 3 -164 57 -38 112 -55 178 -55 68 0 75 -7 91 -80 33 -154
122 -268 212 -272 64 -2 84 31 108 179 16 95 22 100 110 85 137 -24 206 -7
269 65 48 54 40 88 -30 126 -70 37 -137 92 -145 118 -7 20 -1 29 70 128 51 69
79 209 54 265 -33 72 -154 51 -264 -44 -66 -57 -81 -52 -126 40 -39 80 -105
151 -162 174 -45 19 -107 25 -141 16z m143 -45 c55 -28 109 -91 145 -169 26
-57 40 -77 59 -81 30 -8 72 12 107 50 55 60 181 95 211 59 35 -43 -5 -206 -70
-284 -57 -68 -65 -86 -51 -121 14 -33 58 -69 143 -119 33 -19 62 -40 64 -47 7
-20 -66 -91 -113 -109 -44 -17 -53 -17 -179 5 -86 15 -102 -5 -125 -146 -13
-81 -39 -123 -75 -123 -33 0 -105 58 -132 105 -22 38 -56 138 -68 198 -7 36
-54 57 -125 57 -91 0 -190 58 -190 111 0 24 8 34 50 60 32 20 58 45 70 69 11
21 47 59 80 85 73 56 83 73 74 130 -3 26 -1 65 7 95 l13 50 -42 43 c-23 24
-42 50 -42 60 0 45 118 59 189 22z"/>
<path d="M682 718 c4 -30 43 -33 43 -3 0 13 -8 21 -23 23 -20 3 -23 0 -20 -20z"/>
<path d="M555 646 c-3 -9 -7 -22 -9 -30 -3 -7 0 -32 6 -55 13 -53 53 -83 112
-83 77 -2 88 21 22 46 -52 20 -71 40 -89 91 -15 42 -34 56 -42 31z"/>
<path d="M773 653 c-18 -7 -16 -40 3 -47 21 -8 34 1 34 24 0 19 -17 30 -37 23z"/>
<path d="M150 952 c0 -11 94 -82 109 -82 22 0 10 16 -38 53 -46 36 -71 46 -71
29z"/>
<path d="M12 799 c6 -17 188 -26 188 -9 0 5 -15 10 -34 10 -18 0 -61 3 -96 7
-51 5 -62 4 -58 -8z"/>
<path d="M1208 693 c-16 -2 -28 -9 -28 -14 0 -15 133 -7 138 9 4 12 -47 14
-110 5z"/>
<path d="M1166 581 c-8 -13 -4 -15 92 -50 52 -19 84 -26 88 -20 8 13 11 11
-71 41 -38 15 -77 29 -86 33 -10 3 -20 2 -23 -4z"/>
</g>
</svg>
