<?xml version="1.0" standalone="no"?>
<!DOCTYPE svg PUBLIC "-//W3C//DTD SVG 20010904//EN"
 "http://www.w3.org/TR/2001/REC-SVG-20010904/DTD/svg10.dtd">
<svg version="1.0" xmlns="http://www.w3.org/2000/svg"
 width="628.000000pt" height="101.000000pt" viewBox="0 0 628.000000 101.000000"
 preserveAspectRatio="xMidYMid meet">
<metadata>
Created by potrace 1.16, written by Peter Selinger 2001-2019
</metadata>
<g transform="translate(0.000000,101.000000) scale(0.100000,-0.100000)"
fill="#ffffff" stroke="none">
<path d="M842 885 c-139 -39 -192 -100 -143 -166 20 -27 21 -40 21 -267 0
-292 4 -330 37 -343 26 -10 84 9 99 32 5 8 11 57 14 109 l5 95 40 3 c39 2 42
1 143 -113 116 -130 140 -147 180 -124 33 18 56 62 47 90 -4 11 -45 61 -92
110 l-85 90 45 40 c121 106 132 274 25 376 -73 71 -221 101 -336 68z m195
-154 c131 -60 49 -213 -124 -234 l-43 -5 0 123 c0 89 3 125 13 128 29 12 115
5 154 -12z"/>
<path d="M223 859 c-81 -26 -133 -73 -133 -121 0 -35 24 -68 49 -68 9 0 12
-58 11 -247 -1 -137 -1 -255 -1 -264 2 -31 54 -42 174 -37 134 5 182 23 244
90 64 70 80 155 44 234 -10 23 -30 50 -44 60 l-24 19 25 38 c51 77 38 191 -30
254 -68 63 -195 80 -315 42z m198 -144 c29 -11 40 -50 22 -75 -19 -27 -71 -50
-113 -50 l-30 0 0 69 c0 68 0 70 28 73 26 3 59 -2 93 -17z m-22 -285 c43 -12
81 -47 81 -75 0 -43 -69 -85 -141 -85 l-39 0 0 85 0 85 33 0 c17 0 47 -4 66
-10z"/>
<path d="M4480 864 c-159 -58 -260 -219 -260 -415 0 -217 120 -349 317 -349
116 0 208 56 283 172 60 91 83 180 78 290 -7 146 -56 231 -165 284 -70 35
-185 43 -253 18z m176 -148 c74 -34 99 -80 98 -171 -4 -173 -125 -320 -247
-300 -54 10 -121 75 -137 135 -32 118 44 295 144 341 54 24 81 24 142 -5z"/>
<path d="M5467 863 c-13 -15 -17 -57 -23 -225 l-7 -207 -40 57 c-71 99 -266
340 -293 361 -34 27 -64 27 -98 0 l-26 -20 0 -340 0 -340 25 -24 c29 -30 64
-32 96 -6 24 19 24 23 29 240 l5 220 91 -122 c51 -67 122 -168 159 -225 37
-56 75 -107 85 -112 27 -14 62 -12 85 6 26 19 33 114 34 465 1 236 0 257 -17
272 -25 22 -85 22 -105 0z"/>
<path d="M2125 856 c-68 -22 -163 -74 -200 -111 -19 -20 -47 -59 -62 -88 -26
-48 -28 -61 -28 -167 0 -108 2 -119 31 -180 95 -200 319 -267 497 -149 64 42
77 71 77 169 0 66 4 86 21 109 16 22 19 36 14 60 -12 54 -33 61 -193 61 -180
0 -202 -9 -202 -82 0 -55 32 -73 132 -73 l78 1 0 -57 c0 -50 -3 -59 -26 -74
-110 -72 -266 23 -289 176 -18 120 66 223 221 269 36 11 49 10 90 -4 69 -23
99 -21 124 11 37 47 2 113 -69 133 -49 14 -167 11 -216 -4z"/>
<path d="M2561 844 c-20 -26 -21 -38 -21 -356 l0 -329 25 -24 c31 -32 69 -32
100 0 24 23 25 30 25 140 l0 115 124 0 124 0 4 -121 c3 -113 5 -122 27 -140
33 -27 73 -24 102 7 22 23 24 35 27 142 4 108 5 117 28 134 33 26 33 80 0 113
-23 23 -25 31 -28 171 -3 164 -8 174 -78 174 -66 0 -75 -21 -78 -181 l-4 -139
-124 0 -124 0 0 138 c0 162 -8 182 -70 182 -30 0 -43 -6 -59 -26z"/>
<path d="M1395 835 c-49 -48 -21 -112 53 -122 l42 -6 0 -213 0 -214 -24 0
c-64 0 -106 -51 -87 -103 16 -43 32 -47 179 -48 169 -2 192 7 192 70 0 47 -27
74 -75 75 l-35 1 0 216 0 216 39 7 c70 11 96 85 45 125 -24 19 -40 21 -166 21
-134 0 -140 -1 -163 -25z"/>
<path d="M5900 850 c-104 -4 -144 -10 -175 -25 -51 -25 -64 -59 -41 -105 13
-28 16 -70 16 -271 0 -131 4 -249 10 -263 14 -39 45 -48 168 -54 197 -9 302
24 302 93 0 14 -11 37 -26 52 -22 22 -31 24 -67 18 -100 -17 -172 -23 -203
-18 l-34 6 0 63 0 64 98 0 c111 0 167 12 182 40 16 30 12 75 -10 95 -18 16
-33 17 -145 12 l-125 -6 0 73 0 73 38 7 c20 3 84 6 142 6 127 0 150 11 150 70
0 30 -6 43 -26 59 -29 23 -20 22 -254 11z"/>
<path d="M3181 826 c-16 -17 -22 -33 -19 -57 4 -44 33 -58 137 -66 l80 -6 3
-272 c3 -252 4 -275 22 -294 22 -24 94 -29 114 -9 9 9 12 89 12 297 l0 286 78
1 c100 0 131 9 142 39 11 30 -5 82 -30 95 -11 6 -124 10 -268 10 l-249 0 -22
-24z"/>
</g>
</svg>
