<?xml version="1.0" standalone="no"?>
<!DOCTYPE svg PUBLIC "-//W3C//DTD SVG 20010904//EN"
 "http://www.w3.org/TR/2001/REC-SVG-20010904/DTD/svg10.dtd">
<svg version="1.0" xmlns="http://www.w3.org/2000/svg"
 width="141.000000pt" height="124.000000pt" viewBox="0 0 141.000000 124.000000"
 preserveAspectRatio="xMidYMid meet">
<g transform="translate(0.000000,124.000000) scale(0.100000,-0.100000)"
fill="#1a85f7" stroke="none">
<path d="M293 1017 c-107 -40 -175 -136 -174 -246 0 -94 33 -146 169 -270 18
-17 93 -86 165 -155 73 -68 145 -134 160 -147 l29 -22 58 58 58 57 92 -86 92
-86 32 26 c26 22 235 216 283 262 81 79 55 223 -51 278 l-51 27 0 61 c-1 42
-8 75 -23 106 -31 62 -52 97 -52 86 0 -5 -8 -2 -18 7 -66 60 -207 76 -298 33
-30 -14 -67 -42 -90 -70 l-38 -46 -23 27 c-12 16 -22 34 -23 41 0 7 -4 11 -9
7 -5 -3 -13 0 -17 6 -3 6 -30 22 -58 35 -57 27 -156 32 -213 11z m692 -31 c97
-41 163 -162 139 -253 -4 -16 -14 -23 -31 -23 -32 0 -92 -32 -122 -64 l-25
-26 -30 29 c-66 64 -150 77 -232 36 -62 -31 -98 -88 -98 -155 1 -59 22 -97 92
-165 l57 -55 -47 -46 -46 -47 -28 22 c-16 13 -102 93 -193 179 -90 86 -170
161 -177 165 -8 4 -14 14 -14 22 0 7 -8 16 -18 19 -44 14 -77 122 -60 200 12
59 72 130 133 157 46 21 129 24 186 7 53 -15 113 -69 139 -123 12 -25 24 -45
26 -45 2 0 15 21 28 48 61 119 197 169 321 118z m-112 -339 c19 -15 41 -40 49
-57 13 -31 38 -41 38 -15 0 8 14 30 30 49 89 101 265 55 284 -73 10 -70 -19
-107 -254 -321 l-76 -68 -41 36 c-190 171 -274 258 -284 294 -19 71 21 148 91
177 44 19 124 8 163 -22z"/>
</g>
</svg>
