<svg display="none" xmlns="http://www.w3.org/2000/svg">
  <symbol id="close" viewBox="0 0 512.001 512.001">
    <path d="M284.286,256.002L506.143,34.144c7.811-7.811,7.811-20.475,0-28.285c-7.811-7.81-20.475-7.811-28.285,0L256,227.717
			L34.143,5.859c-7.811-7.811-20.475-7.811-28.285,0c-7.81,7.811-7.811,20.475,0,28.285l221.857,221.857L5.858,477.859
			c-7.811,7.811-7.811,20.475,0,28.285c3.905,3.905,9.024,5.857,14.143,5.857c5.119,0,10.237-1.952,14.143-5.857L256,284.287
			l221.857,221.857c3.905,3.905,9.024,5.857,14.143,5.857s10.237-1.952,14.143-5.857c7.811-7.811,7.811-20.475,0-28.285
			L284.286,256.002z"/>
  </symbol>

	<symbol id="arrow" fill="#c9c9c9" viewBox="0 0 80 180">
    <path d="M54.1 109c-.8 0-1.6-.4-2-1.1-.8-1.1-.5-2.7.6-3.5 1.3-.9 6.8-4 11.6-6.6-15.9-1.3-29.2-8.3-38.5-20.2C8.9 56 8.5 24.1 13.2 3.4c.3-1.3 1.7-2.2 3-1.9 1.3.3 2.2 1.7 1.9 3-4.5 19.6-4.2 49.8 11.6 70 9 11.5 21.5 17.7 37.2 18.4l-1.8-2.3c-1.4-1.7-2.7-3.4-4.1-5.1-.7-.9-1.5-1.9-2.3-2.9-.9-1.1-.7-2.6.4-3.5 1.1-.9 2.6-.7 3.5.4 0 0 0 .1.1.1l6.4 7.9c.5.5.9 1.1 1.4 1.7 1.5 1.8 3.1 3.6 4.4 5.6 0 .1.1.1.1.2.1.3.2.5.3.8v.6c0 .2-.1.4-.2.6-.1.1-.1.3-.2.4-.1.2-.3.4-.5.6-.1.1-.3.2-.5.3-.1 0-.1.1-.2.1-1.2.6-16 8.6-18.1 10-.5.5-1 .6-1.5.6z"/>
  </symbol>

	<symbol id="arrowmini" fill="#c9c9c9" viewBox="0 0 80 180">
    <path d="M31.5 47c-1.1-.9-2.7-.7-3.5.4L20.2 57V5.8c0-1.4-1.1-2.5-2.5-2.5s-2.5 1.1-2.5 2.5V57l-7.8-9.7c-.8-1-2.4-1.2-3.5-.3-1.1.9-1.2 2.4-.4 3.5l12.2 15.2c.5.6 1.2.9 1.9.9s1.5-.3 1.9-.9l12.2-15.2c1-1.1.9-2.6-.2-3.5z"/>
  </symbol>

  	<symbol id="totop" fill="#3d93e3" viewBox="0 0 512 512">
    <path d="M256,0C114.833,0,0,114.833,0,256s114.833,256,256,256s256-114.853,256-256S397.167,0,256,0z M256,472.341
			c-119.275,0-216.341-97.046-216.341-216.341S136.725,39.659,256,39.659c119.295,0,216.341,97.046,216.341,216.341
			S375.275,472.341,256,472.341z"/>

		<path d="M369.227,283.365l-99.148-99.148c-7.734-7.694-20.226-7.694-27.96,0l-99.148,99.148c-6.365,7.416-6.365,18.382,0,25.798
			c7.119,8.309,19.651,9.28,27.96,2.161L256,226.256l85.267,85.069c7.734,7.694,20.226,7.694,27.96,0
			C376.921,303.591,376.921,291.098,369.227,283.365z"/>
  </symbol>
</svg>



