<svg display="none" xmlns="http://www.w3.org/2000/svg">
  <symbol id="close" viewBox="0 0 512.001 512.001">
    <path d="M284.286,256.002L506.143,34.144c7.811-7.811,7.811-20.475,0-28.285c-7.811-7.81-20.475-7.811-28.285,0L256,227.717
			L34.143,5.859c-7.811-7.811-20.475-7.811-28.285,0c-7.81,7.811-7.811,20.475,0,28.285l221.857,221.857L5.858,477.859
			c-7.811,7.811-7.811,20.475,0,28.285c3.905,3.905,9.024,5.857,14.143,5.857c5.119,0,10.237-1.952,14.143-5.857L256,284.287
			l221.857,221.857c3.905,3.905,9.024,5.857,14.143,5.857s10.237-1.952,14.143-5.857c7.811-7.811,7.811-20.475,0-28.285
			L284.286,256.002z"/>
  </symbol>

	<symbol id="arrow" fill="#c9c9c9" viewBox="0 0 80 180">
    <path d="M54.1 109c-.8 0-1.6-.4-2-1.1-.8-1.1-.5-2.7.6-3.5 1.3-.9 6.8-4 11.6-6.6-15.9-1.3-29.2-8.3-38.5-20.2C8.9 56 8.5 24.1 13.2 3.4c.3-1.3 1.7-2.2 3-1.9 1.3.3 2.2 1.7 1.9 3-4.5 19.6-4.2 49.8 11.6 70 9 11.5 21.5 17.7 37.2 18.4l-1.8-2.3c-1.4-1.7-2.7-3.4-4.1-5.1-.7-.9-1.5-1.9-2.3-2.9-.9-1.1-.7-2.6.4-3.5 1.1-.9 2.6-.7 3.5.4 0 0 0 .1.1.1l6.4 7.9c.5.5.9 1.1 1.4 1.7 1.5 1.8 3.1 3.6 4.4 5.6 0 .1.1.1.1.2.1.3.2.5.3.8v.6c0 .2-.1.4-.2.6-.1.1-.1.3-.2.4-.1.2-.3.4-.5.6-.1.1-.3.2-.5.3-.1 0-.1.1-.2.1-1.2.6-16 8.6-18.1 10-.5.5-1 .6-1.5.6z"/>
  </symbol>

	<symbol id="arrowmini" fill="#c9c9c9" viewBox="0 0 80 180">
    <path d="M31.5 47c-1.1-.9-2.7-.7-3.5.4L20.2 57V5.8c0-1.4-1.1-2.5-2.5-2.5s-2.5 1.1-2.5 2.5V57l-7.8-9.7c-.8-1-2.4-1.2-3.5-.3-1.1.9-1.2 2.4-.4 3.5l12.2 15.2c.5.6 1.2.9 1.9.9s1.5-.3 1.9-.9l12.2-15.2c1-1.1.9-2.6-.2-3.5z"/>
  </symbol>

  <symbol id="totop" fill="#3d93e3" viewBox="0 0 512 512">
    <path d="M256,0C114.833,0,0,114.833,0,256s114.833,256,256,256s256-114.853,256-256S397.167,0,256,0z M256,472.341
			c-119.275,0-216.341-97.046-216.341-216.341S136.725,39.659,256,39.659c119.295,0,216.341,97.046,216.341,216.341
			S375.275,472.341,256,472.341z"/>

		<path d="M369.227,283.365l-99.148-99.148c-7.734-7.694-20.226-7.694-27.96,0l-99.148,99.148c-6.365,7.416-6.365,18.382,0,25.798
			c7.119,8.309,19.651,9.28,27.96,2.161L256,226.256l85.267,85.069c7.734,7.694,20.226,7.694,27.96,0
			C376.921,303.591,376.921,291.098,369.227,283.365z"/>
  </symbol>


	<symbol id="logo" fill="#ffffff" viewBox="0 0 628 101">
    <path d="M842 885 c-139 -39 -192 -100 -143 -166 20 -27 21 -40 21 -267 0
-292 4 -330 37 -343 26 -10 84 9 99 32 5 8 11 57 14 109 l5 95 40 3 c39 2 42
1 143 -113 116 -130 140 -147 180 -124 33 18 56 62 47 90 -4 11 -45 61 -92
110 l-85 90 45 40 c121 106 132 274 25 376 -73 71 -221 101 -336 68z m195
-154 c131 -60 49 -213 -124 -234 l-43 -5 0 123 c0 89 3 125 13 128 29 12 115
5 154 -12z"/>
<path d="M223 859 c-81 -26 -133 -73 -133 -121 0 -35 24 -68 49 -68 9 0 12
-58 11 -247 -1 -137 -1 -255 -1 -264 2 -31 54 -42 174 -37 134 5 182 23 244
90 64 70 80 155 44 234 -10 23 -30 50 -44 60 l-24 19 25 38 c51 77 38 191 -30
254 -68 63 -195 80 -315 42z m198 -144 c29 -11 40 -50 22 -75 -19 -27 -71 -50
-113 -50 l-30 0 0 69 c0 68 0 70 28 73 26 3 59 -2 93 -17z m-22 -285 c43 -12
81 -47 81 -75 0 -43 -69 -85 -141 -85 l-39 0 0 85 0 85 33 0 c17 0 47 -4 66
-10z"/>
<path d="M4480 864 c-159 -58 -260 -219 -260 -415 0 -217 120 -349 317 -349
116 0 208 56 283 172 60 91 83 180 78 290 -7 146 -56 231 -165 284 -70 35
-185 43 -253 18z m176 -148 c74 -34 99 -80 98 -171 -4 -173 -125 -320 -247
-300 -54 10 -121 75 -137 135 -32 118 44 295 144 341 54 24 81 24 142 -5z"/>
<path d="M5467 863 c-13 -15 -17 -57 -23 -225 l-7 -207 -40 57 c-71 99 -266
340 -293 361 -34 27 -64 27 -98 0 l-26 -20 0 -340 0 -340 25 -24 c29 -30 64
-32 96 -6 24 19 24 23 29 240 l5 220 91 -122 c51 -67 122 -168 159 -225 37
-56 75 -107 85 -112 27 -14 62 -12 85 6 26 19 33 114 34 465 1 236 0 257 -17
272 -25 22 -85 22 -105 0z"/>
<path d="M2125 856 c-68 -22 -163 -74 -200 -111 -19 -20 -47 -59 -62 -88 -26
-48 -28 -61 -28 -167 0 -108 2 -119 31 -180 95 -200 319 -267 497 -149 64 42
77 71 77 169 0 66 4 86 21 109 16 22 19 36 14 60 -12 54 -33 61 -193 61 -180
0 -202 -9 -202 -82 0 -55 32 -73 132 -73 l78 1 0 -57 c0 -50 -3 -59 -26 -74
-110 -72 -266 23 -289 176 -18 120 66 223 221 269 36 11 49 10 90 -4 69 -23
99 -21 124 11 37 47 2 113 -69 133 -49 14 -167 11 -216 -4z"/>
<path d="M2561 844 c-20 -26 -21 -38 -21 -356 l0 -329 25 -24 c31 -32 69 -32
100 0 24 23 25 30 25 140 l0 115 124 0 124 0 4 -121 c3 -113 5 -122 27 -140
33 -27 73 -24 102 7 22 23 24 35 27 142 4 108 5 117 28 134 33 26 33 80 0 113
-23 23 -25 31 -28 171 -3 164 -8 174 -78 174 -66 0 -75 -21 -78 -181 l-4 -139
-124 0 -124 0 0 138 c0 162 -8 182 -70 182 -30 0 -43 -6 -59 -26z"/>
<path d="M1395 835 c-49 -48 -21 -112 53 -122 l42 -6 0 -213 0 -214 -24 0
c-64 0 -106 -51 -87 -103 16 -43 32 -47 179 -48 169 -2 192 7 192 70 0 47 -27
74 -75 75 l-35 1 0 216 0 216 39 7 c70 11 96 85 45 125 -24 19 -40 21 -166 21
-134 0 -140 -1 -163 -25z"/>
<path d="M5900 850 c-104 -4 -144 -10 -175 -25 -51 -25 -64 -59 -41 -105 13
-28 16 -70 16 -271 0 -131 4 -249 10 -263 14 -39 45 -48 168 -54 197 -9 302
24 302 93 0 14 -11 37 -26 52 -22 22 -31 24 -67 18 -100 -17 -172 -23 -203
-18 l-34 6 0 63 0 64 98 0 c111 0 167 12 182 40 16 30 12 75 -10 95 -18 16
-33 17 -145 12 l-125 -6 0 73 0 73 38 7 c20 3 84 6 142 6 127 0 150 11 150 70
0 30 -6 43 -26 59 -29 23 -20 22 -254 11z"/>
<path d="M3181 826 c-16 -17 -22 -33 -19 -57 4 -44 33 -58 137 -66 l80 -6 3
-272 c3 -252 4 -275 22 -294 22 -24 94 -29 114 -9 9 9 12 89 12 297 l0 286 78
1 c100 0 131 9 142 39 11 30 -5 82 -30 95 -11 6 -124 10 -268 10 l-249 0 -22
-24z"/>
  </symbol>
</svg>



